<?xml version="1.0" standalone="no"?>
<!DOCTYPE svg PUBLIC "-//W3C//DTD SVG 20010904//EN"
 "http://www.w3.org/TR/2001/REC-SVG-20010904/DTD/svg10.dtd">
<svg version="1.0" xmlns="http://www.w3.org/2000/svg"
 width="26" height="26" viewBox="0 0 64.000000 64.000000"
 preserveAspectRatio="xMidYMid meet">
<metadata>
Created by potrace 1.10, written by Peter Selinger 2001-2011
</metadata>
<g transform="translate(0.000000,64.000000) scale(0.100000,-0.100000)"
fill="#000000" stroke="none">
<path d="M105 535 c-39 -38 -32 -66 31 -134 31 -34 63 -61 72 -61 9 0 -10 26
-46 64 -65 67 -74 92 -44 119 31 28 51 20 128 -55 l74 -71 74 71 c77 75 101
85 129 54 28 -31 20 -51 -55 -128 l-71 -74 71 -74 c75 -77 85 -101 54 -129
-31 -28 -51 -20 -128 55 l-74 71 -74 -71 c-41 -40 -83 -72 -93 -72 -31 0 -57
35 -49 66 5 19 3 25 -6 22 -7 -3 -14 -18 -16 -35 -2 -24 3 -36 24 -52 44 -34
67 -27 144 45 l70 66 70 -66 c79 -74 105 -81 145 -41 40 40 33 66 -41 145
l-66 70 66 70 c74 79 81 105 41 145 -40 40 -66 33 -145 -41 l-70 -66 -70 66
c-79 74 -105 81 -145 41z"/>
<path d="M186 452 c-3 -5 5 -19 18 -31 13 -13 26 -18 30 -13 3 5 -5 19 -18 31
-13 13 -26 18 -30 13z"/>
<path d="M412 427 c-18 -18 -29 -36 -25 -40 7 -8 73 51 73 65 0 16 -17 7 -48
-25z"/>
<path d="M252 379 c2 -7 10 -15 17 -17 8 -3 12 1 9 9 -2 7 -10 15 -17 17 -8 3
-12 -1 -9 -9z"/>
<path d="M145 250 c-16 -16 -25 -33 -22 -37 8 -7 67 45 67 59 0 16 -17 8 -45
-22z"/>
<path d="M185 199 c-4 -6 -5 -13 -2 -16 7 -7 27 6 27 18 0 12 -17 12 -25 -2z"/>
</g>
</svg>
