<?xml version="1.0" standalone="no"?>
<!DOCTYPE svg PUBLIC "-//W3C//DTD SVG 20010904//EN"
 "http://www.w3.org/TR/2001/REC-SVG-20010904/DTD/svg10.dtd">
<svg version="1.0" xmlns="http://www.w3.org/2000/svg"
 width="26" height="26" viewBox="0 0 64.000000 64.000000"
 preserveAspectRatio="xMidYMid meet">
<metadata>
Created by potrace 1.10, written by Peter Selinger 2001-2011
</metadata>
<g transform="translate(0.000000,64.000000) scale(0.100000,-0.100000)"
fill="#000000" stroke="none">
<path d="M26 591 c-10 -11 -18 -36 -19 -57 -1 -28 5 -42 27 -60 27 -24 28 -24
286 -24 258 0 259 0 286 24 22 18 28 32 27 60 -1 21 -9 46 -19 57 -16 18 -33
19 -294 19 -261 0 -278 -1 -294 -19z m558 -47 c3 -9 4 -20 0 -25 -7 -12 -521
-12 -528 0 -4 5 -3 16 0 25 5 14 38 16 264 16 226 0 259 -2 264 -16z"/>
<path d="M30 382 c-32 -26 -32 -98 0 -124 20 -16 46 -18 290 -18 244 0 270 2
290 18 32 26 32 98 0 124 -20 16 -46 18 -290 18 -244 0 -270 -2 -290 -18z
m550 -47 c10 -12 10 -18 0 -30 -10 -13 -52 -15 -260 -15 -208 0 -250 2 -260
15 -10 12 -10 18 0 30 10 13 52 15 260 15 208 0 250 -2 260 -15z"/>
<path d="M34 166 c-36 -30 -38 -91 -4 -118 20 -16 48 -18 290 -18 247 0 270 1
291 19 34 27 32 86 -5 117 -27 24 -28 24 -286 24 -258 0 -259 0 -286 -24z
m550 -45 c4 -5 3 -16 0 -25 -5 -14 -38 -16 -264 -16 -226 0 -259 2 -264 16 -3
9 -4 20 0 25 7 12 521 12 528 0z"/>
</g>
</svg>
